<svg xmlns="http://www.w3.org/2000/svg" xmlns:xlink="http://www.w3.org/1999/xlink" width="136" height="83" viewBox="0 0 136 83">
  <defs>
    <clipPath id="clip-path">
      <path id="Clip_2" data-name="Clip 2" d="M0,0H136V83H0Z" transform="translate(0.5 0.846)" fill="none"/>
    </clipPath>
  </defs>
  <g id="Group_3" data-name="Group 3" transform="translate(-0.5 -0.846)" opacity="0.15">
    <path id="Clip_2-2" data-name="Clip 2" d="M0,0H136V83H0Z" transform="translate(0.5 0.846)" fill="none"/>
    <g id="Group_3-2" data-name="Group 3" clip-path="url(#clip-path)">
      <path id="Fill_1" data-name="Fill 1" d="M64.309,83c-2.2-.351-4.586-1.045-5.458-4.684-.564-2.351-2.348-4.478-3.831-6.527-1.934-2.673-4.05-2.467-7.037,1.19-1.3-1.824-2.8-3.308-3.547-5.1-1.7-4.073-5.518-5.615-9.923-4.9-2.693.435-5.792-.534-8.48-1.5-2.484-.894-4.609-2.735-7-3.953-1.671-.852-3.535-1.321-5.283-2.032A7.317,7.317,0,0,1,11.2,54.112a50.506,50.506,0,0,1-6.163-7.07A30.155,30.155,0,0,1,1.855,39.42,40.61,40.61,0,0,1,.113,31.056a22.8,22.8,0,0,1,.5-7.734c2.06-7.6,4.469-15.1,6.433-22.766C8.2.034,10.771,3.83,11.507,0c12.712,2.088,25.305,4.511,38,6.1,7.079.888,14.336.3,21.5.6,1.542.063,3.021,1.134,4.572,1.6,2.276.688,4.59,1.251,7,1.9l-3.851,3.464q.111.38.224.76L85.6,13.181l11.336.915c-2.421,2.6-7.177.489-7.6,4.84-.759,7.8-.639,8.638,1.819,12.069.664-1.858,1.611-3.24,1.557-4.582-.205-5.1-.327-5.092,2.273-9.928,4.268.718,4.76,1.551,3.265,6.12l3.124-2.019c-.211,3.289-.364,5.673-.533,8.3,2.923,1.551,9.08-2.433,9.435-6.918,1.119-.13,2.412.016,3.374-.477a4.3,4.3,0,0,0,2.206-2.483c.435-2.418,1.43-4.048,3.926-4.6,1.138-.25,2.244-.652,3.387-.865,3.08-.572,4.646-2.289,4.639-5.5-.006-2.494.614-4.625,3.746-4.239L136,11c-2.7,3.227-9.524,5.138-4.869,12.194-5.551,1.468-7.258,6.3-9.159,10.846l.673,4.478-3.322-1.411c.625,1.773.835,3.276,1.609,4.391,2.282,3.288,1.785,5.517-1.064,8.328a73.27,73.27,0,0,0-8.31,9.962c-2.026,2.873-1.232,5.957.594,8.842,1.419,2.243,2.677,4.591,3.942,6.927a3.572,3.572,0,0,1,.542,1.975,42.761,42.761,0,0,1-.966,4.239,12.428,12.428,0,0,1-3.181-1.75c-2.18-2.235-4.327-4.459-4.595-7.961-.225-2.933-3.485-4.436-6.5-3.408a3.116,3.116,0,0,1-1.329.182c-3.947-.475-7.889-.988-11.69-1.471-1.34,5.187-1.928,5.1-6.435,3.568a12.081,12.081,0,0,0-7.6.4,21.143,21.143,0,0,0-7.463,5.043c-1.376,1.439-1.607,3.967-2.573,6.622" transform="translate(0.5 0.846)" fill="#fff"/>
    </g>
  </g>
</svg>
